<svg xmlns="http://www.w3.org/2000/svg" viewBox="0 0 1000 1000" role="img" aria-label="Illustration of Christmas Cranberry Rosemary Spritz"><rect width="1000" height="1000" fill="#123d39"/><circle cx="500" cy="480" r="390" fill="none" stroke="#ffca87" opacity=".23" stroke-width="3"/><circle cx="500" cy="480" r="344" fill="none" stroke="#ffca87" opacity=".16" stroke-width="2"/><path d="M210 850 Q500 810 790 850" fill="none" stroke="#ffca87" stroke-width="7" opacity=".45"/><path d="M350 280 L650 280 L570 630 Q500 675 430 630 Z" fill="#c34b57" stroke="#ffca87" stroke-width="8"/><path d="M500 650 L500 770 M410 774 L590 774" fill="none" stroke="#ffca87" stroke-width="16" stroke-linecap="round"/><circle cx="230" cy="550" r="32" fill="#c34b57" stroke="#ffca87" stroke-width="5"/><circle cx="770" cy="600" r="26" fill="#c34b57" stroke="#ffca87" stroke-width="5"/><circle cx="745" cy="270" r="23" fill="#c34b57" stroke="#ffca87" stroke-width="5"/><path d="M700 140 Q715 220 760 260 M695 195 Q650 175 645 155 M723 222 Q770 199 788 178" fill="none" stroke="#80a897" stroke-width="11" stroke-linecap="round"/><circle cx="395" cy="330" r="8" fill="#ffca87"/><circle cx="580" cy="430" r="6" fill="#ffca87"/><circle cx="530" cy="510" r="9" fill="#ffca87"/><text x="500" y="925" text-anchor="middle" fill="#ffca87" font-family="Georgia,serif" font-size="30" letter-spacing="6">BETTER SWEET DRINKS</text></svg>